# xmcd
#
# Track frame offsets:
#	150
#	14707
#	29881
#	42301
#	54263
#	66933
#	88092
#	101257
#	108049
#	120009
#	132667
#	146970
#	158203
#	172091
#	185391
#	198385
#
# Disc length: 2807 seconds
#
# Revision: 1
# Processed by: cddbd v1.5.2PL0 Copyright (c) Steve Scherf et al.
# Submitted via: audiograbber 1.83.01
#
DISCID=e40af510
DTITLE=Various Artist - Greatest Country Hits
DYEAR=2008
DGENRE=Country
TTITLE0=Take Me Home Country Roads - John Denver
TTITLE1=Blanket On The Ground - Billie Jo Spears
TTITLE2=I Walk The Line - Johnny Cash
TTITLE3=Rose Garden - Lynn Anderson
TTITLE4=These Boots Are Made For Walking - Lee Hazlewood
TTITLE5=If Not For You - Olivia Newton - John
TTITLE6=Ruby, Don't Take Your Love To Town - Kenny Rogers
TTITLE7=It's So Easy (To Fall In Love) - Waylon Jennings
TTITLE8=Stand By Your Man - Tammy Wynette
TTITLE9=Pride Wins Again - Willie Nelson
TTITLE10=High Powered Love - Emmylou Harris
TTITLE11=King Of The Road - Roger Miller
TTITLE12=Listen To The Radio - Juice Newton
TTITLE13=Long Way Back Home - Gordon Lightfoot
TTITLE14=Talkin' In Your Sleep - Crystal Gayle
TTITLE15=Green Green Grass Of Home - Bobby Bare
EXTD=
EXTT0=
EXTT1=
EXTT2=
EXTT3=
EXTT4=
EXTT5=
EXTT6=
EXTT7=
EXTT8=
EXTT9=
EXTT10=
EXTT11=
EXTT12=
EXTT13=
EXTT14=
EXTT15=
PLAYORDER=
